# xmcd
# Track frame offsets:
# 150
# 21274
# 35280
# 47523
# 61580
# 75813
# 87924
# 105482
# 117186
# 133022
#
# Disc length: 1990 seconds
# Revision: 0
# Processed by: cddbd v1.4PL0 Copyright (c) Steve Scherf et al.
# Submitted via: VisiTrax 2.9.5.181 - For more info visit www.synapsa.com
#
DISCID=6907c40a
DTITLE=Dolly Parton - Super Hits
DYEAR=1900
DGENRE=
TTITLE0=My Tennessee Mountain Home
TTITLE1=Jolene
TTITLE2=The Seeker
TTITLE3=Coat Of Many Colors
TTITLE4=To Daddy
TTITLE5=Silver and Gold
TTITLE6=Why's You Come In Here Lookin' Like That
TTITLE7=Rockin' Years (with Ricky Van Shelton)
TTITLE8=Romeo
TTITLE9=He's Alive
EXTD=
EXTT0=
EXTT1=
EXTT2=
EXTT3=
EXTT4=
EXTT5=
EXTT6=
EXTT7=
EXTT8=
EXTT9=
PLAYORDER=
